<?xml version="1.0" encoding="UTF-8" standalone="no"?>
<svg
   xmlns:dc="http://purl.org/dc/elements/1.1/"
   xmlns:cc="http://creativecommons.org/ns#"
   xmlns:rdf="http://www.w3.org/1999/02/22-rdf-syntax-ns#"
   xmlns:svg="http://www.w3.org/2000/svg"
   xmlns="http://www.w3.org/2000/svg"
   viewBox="0 0 52.5 20"
   height="20"
   width="52.5"
   version="1.1"
   id="svg4928">
  <metadata
     id="metadata4934">
    <rdf:RDF>
      <cc:Work
         rdf:about="">
        <dc:format>image/svg+xml</dc:format>
        <dc:type
           rdf:resource="http://purl.org/dc/dcmitype/StillImage" />
        <dc:title></dc:title>
      </cc:Work>
    </rdf:RDF>
  </metadata>
  <defs
     id="defs4932" />
  <path
     id="path4938"
     d="m 25.622341,20 -18.7691272,0 -3.358864,-3.505899 -3.358864,-3.505898 0,-4.9941016 0,-4.9941014 1.5,-1.5 1.5,-1.500000044694023 23.2500002,0 23.25,0 L 51.135486,1.5 l 1.5,1.5 0,4.5047914 0,4.5047916 -4.122009,3.995208 L 44.391469,20 25.622341,20 Z m 0.122175,-1.25 18.923244,0 3.4436,-3.594344 3.4436,-3.594344 L 51.157722,6.7181564 50.760486,1.875 l -24.375,0 -24.3750002,0 -0.3915916,5.4602474 -0.3915916,5.4602466 2.7969842,2.977252 2.7969841,2.977254 18.9232441,0 z"
     style="fill:#000000" />
</svg>
