<?xml version="1.0" encoding="UTF-8" standalone="no"?>
<svg
   xmlns:dc="http://purl.org/dc/elements/1.1/"
   xmlns:cc="http://creativecommons.org/ns#"
   xmlns:rdf="http://www.w3.org/1999/02/22-rdf-syntax-ns#"
   xmlns:svg="http://www.w3.org/2000/svg"
   xmlns="http://www.w3.org/2000/svg"
   viewBox="0 0 36.25 17.5"
   height="17.5"
   width="36.25"
   version="1.1"
   id="svg5013">
  <metadata
     id="metadata5019">
    <rdf:RDF>
      <cc:Work
         rdf:about="">
        <dc:format>image/svg+xml</dc:format>
        <dc:type
           rdf:resource="http://purl.org/dc/dcmitype/StillImage" />
        <dc:title></dc:title>
      </cc:Work>
    </rdf:RDF>
  </metadata>
  <defs
     id="defs5017" />
  <path
     id="path5023"
     d="m 4.8975614,16.25 -2.2027547,0 -0.774796,-4.6875 C 1.4938729,8.9843754 1.1390242,5.6093754 1.1314578,4.0625004 L 1.1177008,1.25 l 2.5,0 2.4999997,0 0.06441,4.6875004 L 6.2465205,10.625 8.1908035,5.9375004 10.135085,1.25 l 1.741308,0 1.741307,0 0.121474,4.6875004 L 13.860649,10.625 15.783794,5.9375004 17.70694,1.25 l 1.70538,0 c 0.937959,0 1.70538,0.2311965 1.70538,0.5137699 0,0.2825735 -1.203065,3.6575735 -2.673479,7.4999995 L 15.770744,16.25 l -2.326523,0 -2.326521,0 L 11.05329,11.5625 10.98888,6.8750004 9.0445985,11.5625 7.1003165,16.25 l -2.202754,0 z m 17.3708196,0 -2.59932,0 0.72432,-3.75 c 0.398375,-2.0625 1.056816,-5.4673386 1.463201,-7.5663076 l 0.738883,-3.8163078 5.071311,0.3788078 5.071313,0.3788076 1.26374,2.0175964 1.26374,2.017597 -1.009793,2.357403 C 33.700391,9.5641684 33.369876,11.890625 33.5213,13.4375 l 0.275314,2.8125 -2.443668,0 -2.443667,0 -0.686655,-2.62577 -0.686654,-2.625769 -1.334135,0.824541 C 25.468061,12.276499 24.8677,13.458095 24.8677,14.448771 l 0,1.801229 -2.599319,0 z m 5.724319,-8.7499996 1.875,0 0,-1.25 0,-1.25 -1.875,0 -1.875,0 0,1.25 0,1.25 1.875,0 z"
     class="wr" />
</svg>
